<?xml version="1.0" standalone="no"?>
<!DOCTYPE svg PUBLIC "-//W3C//DTD SVG 20010904//EN"
 "http://www.w3.org/TR/2001/REC-SVG-20010904/DTD/svg10.dtd">
<svg version="1.0" xmlns="http://www.w3.org/2000/svg"
 width="2048.000000pt" height="2048.000000pt" viewBox="0 0 2048.000000 2048.000000"
 preserveAspectRatio="xMidYMid meet">
<metadata>
Created by potrace 1.14, written by Peter Selinger 2001-2017
</metadata>
<g transform="translate(0.000000,2048.000000) scale(0.100000,-0.100000)"
fill="#000000" stroke="none">
<path d="M0 10240 l0 -10240 10240 0 10240 0 0 10240 0 10240 -10240 0 -10240
0 0 -10240z m10373 6251 c199 -124 1473 -872 2417 -1418 399 -231 916 -532
1150 -668 234 -135 485 -281 557 -323 l133 -77 0 -551 c0 -303 3 -585 6 -627
7 -74 6 -77 -15 -77 -14 0 -21 -6 -21 -19 0 -14 -106 -77 -437 -261 -241 -133
-456 -255 -478 -270 -57 -40 -385 -223 -415 -232 -14 -5 -182 -22 -375 -38
-365 -32 -925 -86 -985 -96 -60 -10 -65 -13 -66 -41 0 -16 -1 -170 -2 -344
l-2 -317 -247 -137 c-282 -157 -842 -473 -1136 -642 -109 -62 -202 -113 -208
-113 -5 0 -9 5 -9 10 0 6 -9 10 -19 10 -11 0 -77 33 -148 74 -70 40 -292 168
-493 283 -416 240 -842 480 -912 514 -68 33 -64 51 25 95 100 51 851 458 1202
653 160 89 300 161 311 161 26 0 48 24 40 45 -3 8 -16 15 -28 15 -13 0 -165
86 -338 192 -579 352 -1584 954 -1692 1014 -67 37 -107 65 -108 75 0 15 -579
-309 -1431 -802 -114 -65 -211 -119 -216 -119 -6 0 -178 100 -384 221 -434
257 -975 574 -1102 645 -68 38 -87 53 -85 68 2 14 71 58 238 154 288 164 827
478 1425 830 248 146 680 399 960 562 959 558 1370 797 2010 1170 723 421 755
440 772 440 6 0 54 -26 106 -59z m-5500 -3150 c49 -33 515 -312 1104 -660 228
-135 413 -251 415 -260 2 -9 1 -583 -2 -1276 -3 -693 -1 -1265 3 -1272 5 -6
15 -9 22 -7 7 3 170 -88 362 -202 687 -409 1804 -1055 1813 -1049 9 5 3 1676
-6 2075 -10 373 -9 460 1 460 6 0 98 -52 204 -115 106 -64 372 -218 590 -342
218 -124 493 -281 612 -349 l216 -124 6 -2913 c4 -1601 10 -3010 14 -3129 6
-203 5 -218 -11 -218 -10 0 -115 58 -234 129 -329 194 -767 451 -1062 621
-146 84 -276 159 -289 168 l-24 15 6 1211 c4 667 4 1228 1 1247 -5 28 -14 38
-53 58 -103 52 -473 275 -478 287 -3 8 -14 14 -24 14 -11 0 -137 68 -282 151
-719 415 -1237 708 -1362 772 -29 14 -30 14 -33 -7 -5 -35 -19 -944 -27 -1723
-6 -632 -9 -733 -22 -733 -8 0 -40 15 -71 33 -31 19 -205 122 -387 229 -411
243 -690 407 -910 532 -93 54 -173 101 -178 105 -4 4 -3 1071 3 2372 12 3001
20 3929 32 3929 5 0 28 -13 51 -29z m10091 -834 c461 -290 703 -437 722 -437
16 0 17 -21 11 -322 -4 -178 -7 -1306 -7 -2508 l0 -2185 -198 -109 c-362 -201
-854 -478 -1125 -633 -147 -84 -275 -153 -283 -153 -12 0 -14 26 -9 188 8 296
28 2913 21 2919 -3 3 -10 -7 -17 -23 -28 -75 -1034 -3452 -1091 -3666 -12 -45
-30 -49 -47 -10 -14 29 -315 722 -451 1037 -578 1339 -571 1323 -593 1360 -15
26 -17 26 -10 5 10 -31 10 -1004 1 -2204 l-7 -900 -243 -139 c-297 -170 -721
-416 -1091 -634 -152 -90 -280 -163 -285 -163 -4 0 -7 1414 -7 3141 l0 3142
265 145 c146 79 452 248 680 375 228 127 459 255 513 285 54 30 101 60 104 68
3 8 11 14 19 14 14 0 212 -217 624 -685 145 -165 271 -301 281 -303 9 -2 59
-48 109 -103 87 -94 111 -111 125 -90 6 11 48 294 185 1241 49 338 92 647 95
685 6 55 12 73 29 86 12 9 154 88 316 174 162 87 437 237 610 333 173 96 341
187 372 203 31 16 59 33 63 39 3 5 11 10 17 10 6 0 142 -82 302 -183z"/>
<path d="M10690 14914 c-52 -31 -320 -188 -595 -349 -275 -161 -598 -351 -717
-424 -126 -75 -229 -131 -243 -131 -18 0 -25 -5 -25 -19 0 -10 -7 -22 -16 -25
-9 -4 -14 -9 -11 -12 3 -3 19 2 35 11 l29 17 174 -104 c187 -113 841 -498
1454 -858 209 -123 419 -247 466 -275 l87 -53 53 30 c246 139 1031 618 1060
647 15 14 16 45 8 311 -4 162 -11 309 -14 326 -5 28 -20 40 -133 105 -119 68
-731 426 -1067 624 -230 135 -397 226 -425 231 -18 3 -52 -12 -120 -52z"/>
</g>
</svg>
